<?xml version="1.0" standalone="no"?>
<!DOCTYPE svg PUBLIC "-//W3C//DTD SVG 20010904//EN"
 "http://www.w3.org/TR/2001/REC-SVG-20010904/DTD/svg10.dtd">
<svg version="1.0" xmlns="http://www.w3.org/2000/svg"
 width="512.000000pt" height="512.000000pt" viewBox="0 0 512.000000 512.000000"
 preserveAspectRatio="xMidYMid meet">
<metadata>
Created by potrace 1.11, written by Peter Selinger 2001-2013
</metadata>
<g transform="translate(0.000000,512.000000) scale(0.100000,-0.100000)"
fill="#000000" stroke="none">
<path d="M2457 5044 c-1 -1 -47 -4 -102 -8 -55 -4 -125 -11 -155 -16 -30 -5
-73 -12 -95 -15 -109 -16 -344 -84 -495 -145 -86 -34 -278 -132 -368 -188 -86
-54 -250 -172 -311 -225 -80 -71 -250 -247 -310 -322 -34 -44 -70 -89 -80
-100 -40 -49 -176 -272 -194 -317 -3 -10 -11 -18 -17 -18 -6 0 -9 -4 -5 -9 3
-5 -1 -15 -8 -23 -7 -7 -14 -17 -14 -21 -2 -28 -36 -96 -45 -91 -7 4 -8 2 -4
-5 8 -13 -14 -71 -27 -71 -5 0 -5 -4 -2 -10 3 -5 3 -16 -2 -22 -4 -7 -8 -15
-9 -18 -3 -21 -48 -156 -53 -160 -7 -6 -10 -21 -13 -55 -1 -14 -6 -25 -10 -25
-4 0 -5 -9 -3 -20 2 -11 -3 -27 -11 -35 -9 -8 -11 -15 -5 -15 7 0 7 -8 1 -24
-5 -13 -6 -27 -3 -30 4 -3 1 -6 -5 -6 -6 0 -9 -7 -6 -15 3 -8 3 -19 -1 -26 -4
-6 -9 -30 -11 -53 -4 -37 -10 -73 -14 -86 -1 -3 -2 -20 -2 -38 0 -22 -3 -30
-11 -26 -9 5 -9 4 0 -6 14 -15 5 -43 -11 -33 -6 4 -5 0 2 -9 14 -17 13 -103
-1 -125 -4 -6 -3 -14 3 -18 5 -3 10 -11 10 -16 0 -6 -4 -7 -10 -4 -6 4 -7 -2
-1 -18 6 -16 6 -28 -2 -36 -8 -8 -8 -11 2 -11 10 0 11 -3 2 -13 -7 -10 -7 -17
0 -24 8 -8 8 -13 0 -17 -6 -4 -11 -13 -11 -19 0 -8 3 -8 9 1 5 8 8 -10 9 -47
0 -33 3 -65 8 -72 5 -8 3 -9 -6 -4 -10 6 -11 4 -4 -6 4 -8 9 -23 10 -34 3 -33
16 -100 21 -107 2 -5 -2 -8 -9 -8 -9 0 -9 -3 -2 -8 6 -4 11 -14 12 -22 1 -26
13 -83 34 -170 12 -47 22 -92 23 -100 2 -16 21 -66 32 -83 3 -6 2 -7 -4 -4 -5
3 -10 0 -10 -8 0 -8 5 -11 10 -8 6 4 8 -4 5 -20 -4 -18 -1 -24 9 -20 16 6 17
-9 1 -25 -12 -12 -10 -13 12 -16 6 0 10 -4 10 -8 1 -4 12 -34 27 -65 41 -94
46 -108 44 -117 -1 -5 2 -12 7 -15 14 -9 64 -111 55 -111 -5 0 0 -5 9 -11 11
-6 15 -16 11 -26 -4 -11 -3 -14 5 -9 7 4 12 1 12 -7 0 -8 7 -20 15 -27 9 -7
13 -15 11 -18 -3 -2 2 -11 10 -19 17 -17 13 -40 -5 -35 -7 1 -10 -2 -6 -8 5
-8 11 -8 19 -1 16 14 26 4 19 -17 -4 -10 -2 -13 5 -8 7 4 12 2 12 -3 0 -18 -5
-26 -13 -23 -5 1 -5 -3 -2 -9 5 -8 10 -8 18 0 16 16 30 13 23 -5 -3 -8 -2 -12
4 -9 6 3 10 -1 10 -10 0 -10 -5 -13 -12 -9 -8 4 -10 3 -5 -2 5 -5 13 -10 18
-10 5 -1 13 -2 18 -3 5 0 12 -8 15 -17 4 -10 2 -13 -6 -8 -7 4 -8 3 -4 -4 4
-7 13 -12 21 -12 16 0 28 -27 18 -43 -3 -7 -3 -9 1 -5 9 7 56 -35 56 -50 0 -6
7 -13 16 -16 8 -3 12 -10 9 -16 -3 -5 -1 -10 4 -10 10 0 51 -35 51 -44 0 -2
27 -31 59 -64 33 -33 57 -63 54 -66 -4 -3 3 -6 15 -6 12 0 21 -6 19 -12 -1 -7
4 -12 11 -10 10 2 10 -2 1 -20 -9 -19 -9 -21 2 -10 16 14 33 16 24 2 -3 -5 1
-10 9 -10 8 0 22 -10 31 -22 8 -13 17 -21 18 -18 2 3 11 -2 20 -11 9 -9 13
-19 10 -23 -4 -3 1 -6 11 -6 23 0 61 -36 47 -45 -6 -3 -11 -1 -11 6 0 7 -3 10
-6 6 -3 -3 -3 -11 1 -17 5 -8 10 -8 20 0 11 9 19 7 36 -9 13 -12 28 -21 35
-21 6 0 15 -7 18 -16 4 -9 9 -14 12 -11 7 7 24 -5 73 -53 20 -19 33 -31 29
-25 -16 19 -7 27 11 11 11 -10 17 -24 14 -32 -3 -8 0 -14 6 -14 6 0 10 3 10 8
-3 20 4 19 37 -3 20 -14 41 -25 46 -25 6 0 23 -9 39 -21 16 -11 29 -17 29 -13
0 4 8 0 18 -9 9 -8 19 -16 22 -16 21 -1 69 -25 65 -31 -3 -4 2 -11 11 -14 8
-3 12 -2 9 4 -3 6 1 7 9 4 19 -7 21 -25 5 -41 -8 -8 -8 -13 0 -18 7 -4 10 -1
9 7 -2 7 2 12 9 11 7 -2 10 3 7 11 -7 17 5 15 63 -9 26 -11 40 -22 36 -29 -4
-6 1 -5 10 3 15 12 17 11 17 -3 0 -9 5 -16 11 -16 5 0 8 4 5 8 -3 5 10 4 29
-2 19 -6 35 -15 35 -19 0 -5 4 -6 10 -2 13 8 61 -5 55 -15 -3 -5 3 -9 12 -9
10 0 33 -1 51 -1 17 -1 32 -6 32 -11 0 -5 3 -8 8 -8 24 4 41 -3 45 -18 4 -17
5 -17 6 0 1 21 21 23 21 2 0 -8 3 -15 8 -16 4 0 15 -2 24 -4 10 -2 20 1 24 6
3 5 14 9 25 9 11 0 18 -4 15 -9 -3 -5 1 -12 10 -15 12 -5 15 -2 10 10 -6 14
-4 15 9 4 9 -8 14 -22 12 -32 -3 -10 -1 -15 5 -12 5 3 8 15 5 25 -3 11 -2 19
2 19 13 0 41 -36 34 -43 -3 -4 -1 -7 5 -7 15 0 16 17 2 25 -5 3 -10 11 -10 17
0 7 4 7 13 1 6 -5 24 -8 40 -7 18 2 27 -2 27 -11 0 -8 4 -17 10 -20 5 -3 7 0
4 8 -3 8 0 18 7 23 7 4 10 3 6 -3 -4 -6 0 -14 9 -17 8 -3 13 -2 10 2 -3 5 22
8 55 7 40 -1 64 -7 70 -16 7 -12 9 -11 9 2 0 12 7 15 27 11 27 -5 27 -5 5 -15
-12 -6 -22 -14 -22 -19 0 -5 10 -2 21 6 12 8 26 13 33 12 6 -2 8 -1 4 1 -17
10 -6 18 22 18 26 0 29 -3 24 -25 -3 -16 -2 -19 3 -9 5 9 18 15 30 14 12 -1
19 3 17 10 -4 9 11 12 48 11 29 -1 59 3 67 8 11 8 13 8 7 -1 -9 -16 6 -17 22
-1 9 9 12 9 12 0 0 -7 5 -12 11 -12 5 0 7 4 4 10 -3 5 1 10 9 10 9 0 16 -4 16
-10 0 -5 5 -10 11 -10 5 0 7 4 4 10 -3 5 0 10 7 10 7 0 23 3 36 6 13 4 22 2
22 -5 0 -7 -6 -9 -12 -5 -7 4 -9 3 -5 -1 16 -18 35 -13 29 8 -5 19 -4 19 10 6
9 -7 13 -18 10 -24 -3 -5 2 -4 11 4 18 14 23 26 8 16 -5 -3 -13 0 -17 7 -4 7
-4 10 0 7 3 -3 31 -1 61 6 46 11 55 11 55 0 0 -8 4 -16 9 -19 5 -4 7 3 4 14
-3 13 0 20 8 21 20 1 41 6 63 15 15 6 18 4 12 -7 -5 -9 -3 -9 6 2 15 18 52 34
43 19 -3 -6 -1 -10 4 -10 6 0 11 5 11 10 0 6 5 10 11 10 5 0 8 -4 4 -9 -3 -5
-1 -13 5 -16 6 -4 10 -3 9 2 -3 20 2 34 11 28 6 -3 10 -2 10 3 0 9 19 15 75
24 13 2 20 -2 19 -13 -1 -14 31 -21 38 -8 2 2 1 3 -1 2 -6 -4 -31 18 -31 28 0
5 3 8 8 7 4 -1 18 4 31 11 20 11 25 11 32 0 7 -11 9 -9 9 6 1 20 1 20 15 1 8
-11 15 -14 15 -7 0 7 5 9 12 5 7 -4 8 -3 4 5 -4 6 -12 9 -17 6 -5 -4 -9 -2 -9
3 0 5 9 12 20 15 11 3 20 1 20 -5 0 -5 5 -6 10 -3 6 4 8 10 5 15 -5 7 21 21
35 19 3 0 36 16 75 36 38 20 64 31 58 23 -9 -11 -8 -14 6 -14 10 0 17 6 14 12
-2 6 8 21 24 33 26 21 28 22 41 4 13 -17 14 -17 8 2 -5 16 1 25 24 38 17 10
30 15 30 11 0 -4 6 -1 13 7 6 8 29 28 50 43 34 25 42 27 65 17 25 -10 26 -10
8 4 -19 14 -18 15 5 24 13 5 20 10 14 11 -5 1 -1 5 10 9 12 5 26 4 35 -2 12
-9 13 -9 3 3 -13 14 -19 39 -7 27 4 -4 15 3 25 15 18 20 19 20 20 2 1 -14 3
-13 8 6 6 20 13 25 37 23 16 -1 21 1 12 4 -10 2 -18 8 -18 13 0 13 36 31 45
22 5 -4 5 -2 2 4 -9 15 19 38 34 28 7 -4 9 -3 6 3 -3 5 25 40 63 77 39 37 70
71 70 77 0 5 5 9 10 9 5 0 19 9 30 20 11 11 17 20 14 20 -3 0 7 13 23 29 15
16 32 26 37 23 5 -3 6 0 2 6 -4 7 -2 17 4 24 5 7 24 29 40 48 16 19 30 39 30
43 0 5 5 5 10 2 6 -3 10 3 10 14 0 11 10 27 22 35 12 9 18 16 13 16 -6 0 -6 3
0 8 6 4 18 21 27 37 9 17 24 30 32 30 8 0 18 4 23 8 4 5 3 8 -2 7 -22 -5 -27
1 -15 15 7 8 16 13 20 10 5 -3 12 0 16 6 4 8 3 9 -4 5 -18 -11 -14 11 5 33 9
11 21 17 27 14 6 -4 5 1 -3 10 -11 14 -11 18 2 23 9 3 13 12 11 19 -3 7 0 16
7 21 8 5 10 3 4 -7 -5 -8 -4 -11 1 -6 5 5 9 14 9 20 1 22 47 117 55 112 4 -3
7 1 6 8 -1 10 25 82 69 192 5 11 7 23 7 28 -1 4 3 7 8 7 5 0 9 3 9 8 -3 19 2
33 10 27 5 -3 13 -1 16 5 4 6 3 9 -2 8 -8 -3 -13 5 -13 23 0 5 5 7 12 3 6 -4
8 -3 5 3 -9 14 3 74 13 68 5 -3 6 3 4 12 -7 27 12 78 26 75 10 -2 11 0 2 11
-9 10 -8 27 3 71 8 31 15 70 15 86 0 16 4 31 8 34 5 3 8 15 7 28 -2 13 4 34
12 47 8 13 10 20 4 17 -15 -10 -14 37 2 53 10 11 9 12 -2 6 -10 -6 -12 -4 -6
5 12 19 12 54 0 62 -7 5 -6 8 1 8 7 0 10 13 8 31 -3 20 0 28 8 23 7 -5 8 -3 3
7 -12 19 -14 49 -3 49 5 0 6 5 3 10 -4 6 -8 56 -10 113 -4 101 -9 161 -21 267
-3 30 -7 66 -8 80 0 14 -4 27 -8 30 -9 7 -20 78 -21 130 0 19 -3 28 -5 20 -3
-8 -13 15 -23 50 -10 36 -16 71 -14 78 3 7 0 10 -5 7 -6 -3 -10 5 -10 18 0 13
-3 27 -7 31 -7 7 -31 69 -38 97 -2 9 -13 37 -25 63 -11 26 -18 52 -14 58 4 7
3 8 -4 4 -7 -4 -12 -2 -12 5 0 6 -16 43 -35 80 -19 38 -33 69 -30 69 3 0 -4 9
-15 20 -11 11 -20 25 -20 31 0 6 -9 22 -20 36 -11 14 -17 29 -14 34 3 5 1 9
-4 9 -5 0 -26 28 -48 63 -21 34 -44 68 -51 75 -7 8 -18 23 -24 34 -6 11 -19
29 -29 41 -10 12 -43 52 -73 88 -31 37 -53 70 -49 74 4 4 3 6 -3 4 -5 -1 -63
49 -127 112 -65 63 -124 119 -131 124 -285 223 -496 342 -796 446 -71 26 -243
73 -306 85 -11 2 -31 6 -45 9 -14 2 -45 7 -70 10 -25 3 -52 8 -60 10 -40 10
-413 27 -423 19z m-363 -4933 c4 -5 -1 -8 -9 -7 -21 3 -31 16 -12 16 9 0 18
-4 21 -9z"/>
<path d="M4895 1679 c-4 -6 -5 -12 -2 -15 2 -3 7 2 10 11 7 17 1 20 -8 4z"/>
<path d="M4896 1618 c3 -5 10 -6 15 -3 13 9 11 12 -6 12 -8 0 -12 -4 -9 -9z"/>
<path d="M4796 1438 c3 -5 10 -6 15 -3 13 9 11 12 -6 12 -8 0 -12 -4 -9 -9z"/>
<path d="M393 1285 c0 -8 4 -12 9 -9 5 3 6 10 3 15 -9 13 -12 11 -12 -6z"/>
<path d="M4635 1181 c-3 -5 -2 -12 3 -15 5 -3 9 1 9 9 0 17 -3 19 -12 6z"/>
<path d="M4615 1121 c-3 -5 -2 -12 3 -15 5 -3 9 1 9 9 0 17 -3 19 -12 6z"/>
<path d="M4600 1075 c-7 -9 -11 -17 -9 -20 3 -2 10 5 17 15 14 24 10 26 -8 5z"/>
<path d="M4555 1049 c-4 -6 -5 -12 -2 -15 2 -3 7 2 10 11 7 17 1 20 -8 4z"/>
<path d="M536 1038 c3 -5 10 -6 15 -3 13 9 11 12 -6 12 -8 0 -12 -4 -9 -9z"/>
<path d="M4505 1000 c-3 -6 1 -7 9 -4 18 7 21 14 7 14 -6 0 -13 -4 -16 -10z"/>
<path d="M570 986 c0 -2 7 -7 16 -10 8 -3 12 -2 9 4 -6 10 -25 14 -25 6z"/>
<path d="M4513 955 c0 -8 4 -12 9 -9 5 3 6 10 3 15 -9 13 -12 11 -12 -6z"/>
<path d="M627 919 c7 -7 15 -10 18 -7 3 3 -2 9 -12 12 -14 6 -15 5 -6 -5z"/>
<path d="M690 860 c0 -5 5 -10 11 -10 5 0 7 5 4 10 -3 6 -8 10 -11 10 -2 0 -4
-4 -4 -10z"/>
<path d="M4370 840 c0 -4 7 -7 15 -6 23 3 26 12 5 13 -11 1 -20 -2 -20 -7z"/>
<path d="M4320 790 c-6 -11 -8 -20 -6 -20 3 0 10 9 16 20 6 11 8 20 6 20 -3 0
-10 -9 -16 -20z"/>
<path d="M773 775 c0 -8 4 -12 9 -9 5 3 6 10 3 15 -9 13 -12 11 -12 -6z"/>
<path d="M4246 722 c-3 -5 1 -9 9 -9 8 0 12 4 9 9 -3 4 -7 8 -9 8 -2 0 -6 -4
-9 -8z"/>
<path d="M916 667 c3 -10 9 -15 12 -12 3 3 0 11 -7 18 -10 9 -11 8 -5 -6z"/>
<path d="M880 660 c8 -5 20 -10 25 -10 6 0 3 5 -5 10 -8 5 -19 10 -25 10 -5 0
-3 -5 5 -10z"/>
<path d="M4195 651 c-3 -5 -2 -12 3 -15 5 -3 9 1 9 9 0 17 -3 19 -12 6z"/>
<path d="M995 560 c-3 -5 -1 -10 4 -10 6 0 11 5 11 10 0 6 -2 10 -4 10 -3 0
-8 -4 -11 -10z"/>
<path d="M4085 560 c3 -5 8 -10 11 -10 2 0 4 5 4 10 0 6 -5 10 -11 10 -5 0 -7
-4 -4 -10z"/>
<path d="M1053 529 c-2 -23 3 -25 10 -4 4 8 3 16 -1 19 -4 3 -9 -4 -9 -15z"/>
<path d="M4033 525 c0 -7 6 -11 14 -8 7 3 13 6 13 8 0 2 -6 5 -13 8 -8 3 -14
-1 -14 -8z"/>
<path d="M1006 522 c-3 -5 1 -9 9 -9 8 0 12 4 9 9 -3 4 -7 8 -9 8 -2 0 -6 -4
-9 -8z"/>
<path d="M1113 505 c0 -8 4 -15 9 -15 4 0 8 4 8 9 0 6 -4 12 -8 15 -5 3 -9 -1
-9 -9z"/>
<path d="M3939 483 c-13 -16 -12 -17 4 -4 16 13 21 21 13 21 -2 0 -10 -8 -17
-17z"/>
<path d="M3954 468 c-19 -23 -19 -23 2 -5 11 9 24 14 27 10 4 -3 7 -1 7 5 0
19 -15 14 -36 -10z"/>
<path d="M3906 462 c-3 -5 1 -9 9 -9 8 0 12 4 9 9 -3 4 -7 8 -9 8 -2 0 -6 -4
-9 -8z"/>
<path d="M1196 418 c3 -5 10 -6 15 -3 13 9 11 12 -6 12 -8 0 -12 -4 -9 -9z"/>
<path d="M3826 404 c-6 -15 -4 -15 11 -3 10 7 20 15 22 16 2 2 -3 3 -11 3 -9
0 -19 -7 -22 -16z"/>
<path d="M3873 405 c0 -8 4 -12 9 -9 5 3 6 10 3 15 -9 13 -12 11 -12 -6z"/>
<path d="M1295 380 c-3 -5 -1 -10 4 -10 6 0 11 5 11 10 0 6 -2 10 -4 10 -3 0
-8 -4 -11 -10z"/>
<path d="M3768 369 c-20 -11 -24 -29 -7 -29 5 0 7 5 3 12 -5 7 -2 9 8 6 9 -4
15 0 15 8 0 8 -1 14 -1 14 -1 0 -9 -5 -18 -11z"/>
<path d="M1355 340 c-3 -5 -1 -10 4 -10 6 0 11 5 11 10 0 6 -2 10 -4 10 -3 0
-8 -4 -11 -10z"/>
<path d="M1400 330 c-9 -6 -10 -10 -3 -10 6 0 15 5 18 10 8 12 4 12 -15 0z"/>
<path d="M1424 314 c-18 -14 -18 -15 4 -4 12 6 22 13 22 15 0 8 -5 6 -26 -11z"/>
<path d="M3675 320 c-3 -5 -1 -10 4 -10 6 0 11 5 11 10 0 6 -2 10 -4 10 -3 0
-8 -4 -11 -10z"/>
<path d="M1476 295 c-9 -26 -7 -32 5 -12 6 10 9 21 6 23 -2 3 -7 -2 -11 -11z"/>
<path d="M3640 306 c0 -2 7 -7 16 -10 8 -3 12 -2 9 4 -6 10 -25 14 -25 6z"/>
<path d="M1506 278 c3 -4 9 -8 15 -8 5 0 9 4 9 8 0 5 -7 9 -15 9 -8 0 -12 -4
-9 -9z"/>
<path d="M3575 279 c-4 -6 -4 -13 -1 -16 3 -4 6 -1 6 6 0 7 5 9 12 5 7 -4 8
-3 4 4 -9 15 -13 15 -21 1z"/>
<path d="M1624 230 c0 -13 4 -16 10 -10 7 7 7 13 0 20 -6 6 -10 3 -10 -10z"/>
<path d="M3553 235 c0 -8 4 -12 9 -9 4 3 8 9 8 15 0 5 -4 9 -8 9 -5 0 -9 -7
-9 -15z"/>
<path d="M3432 214 c-7 -8 -8 -14 -3 -14 10 0 25 19 20 25 -2 1 -10 -3 -17
-11z"/>
<path d="M3359 195 c-1 -3 -3 -9 -4 -15 -1 -5 -3 -13 -4 -17 -1 -5 -6 -1 -11
7 -8 12 -9 10 -7 -7 2 -12 6 -25 10 -28 4 -3 5 -2 2 2 -3 3 1 13 7 21 12 14
20 42 12 42 -2 0 -5 -2 -5 -5z"/>
<path d="M1750 169 c0 -5 5 -7 10 -4 6 3 10 8 10 11 0 2 -4 4 -10 4 -5 0 -10
-5 -10 -11z"/>
<path d="M1791 164 c0 -11 3 -14 6 -6 3 7 2 16 -1 19 -3 4 -6 -2 -5 -13z"/>
<path d="M3301 164 c0 -11 3 -14 6 -6 3 7 2 16 -1 19 -3 4 -6 -2 -5 -13z"/>
<path d="M1830 154 c0 -9 -5 -12 -12 -8 -7 4 -8 3 -4 -4 10 -16 14 -15 26 8 7
14 7 20 0 20 -5 0 -10 -7 -10 -16z"/>
<path d="M1850 140 c0 -5 5 -10 11 -10 5 0 7 5 4 10 -3 6 -8 10 -11 10 -2 0
-4 -4 -4 -10z"/>
<path d="M3196 134 c-8 -20 -8 -24 2 -24 4 0 8 9 9 20 2 24 -3 26 -11 4z"/>
<path d="M1897 129 c7 -7 15 -10 18 -7 3 3 -2 9 -12 12 -14 6 -15 5 -6 -5z"/>
<path d="M1975 119 c-4 -6 -4 -13 -1 -16 3 -4 6 -1 6 7 0 10 4 10 18 -1 15
-13 16 -12 3 4 -16 20 -18 20 -26 6z"/>
<path d="M3226 118 c3 -5 10 -6 15 -3 13 9 11 12 -6 12 -8 0 -12 -4 -9 -9z"/>
<path d="M3030 100 c0 -4 7 -7 15 -6 23 3 26 12 5 13 -11 1 -20 -2 -20 -7z"/>
<path d="M3115 100 c-3 -6 1 -7 9 -4 18 7 21 14 7 14 -6 0 -13 -4 -16 -10z"/>
<path d="M3013 82 c2 -12 6 -24 10 -28 3 -4 4 4 2 16 -6 30 -16 40 -12 12z"/>
<path d="M2047 79 c7 -7 15 -10 18 -7 3 3 -2 9 -12 12 -14 6 -15 5 -6 -5z"/>
<path d="M2113 75 c0 -8 4 -12 9 -9 4 3 8 9 8 15 0 5 -4 9 -8 9 -5 0 -9 -7 -9
-15z"/>
<path d="M3185 80 c-3 -6 1 -7 9 -4 18 7 21 14 7 14 -6 0 -13 -4 -16 -10z"/>
<path d="M2375 60 c-3 -5 -1 -10 4 -10 6 0 11 5 11 10 0 6 -2 10 -4 10 -3 0
-8 -4 -11 -10z"/>
<path d="M2455 61 c6 -10 2 -12 -16 -6 -13 4 -22 6 -19 4 3 -2 14 -12 26 -22
20 -16 21 -16 19 3 -1 11 -5 23 -10 27 -4 5 -5 2 0 -6z"/>
<path d="M2670 66 c0 -2 7 -7 16 -10 8 -3 12 -2 9 4 -6 10 -25 14 -25 6z"/>
<path d="M2710 60 c0 -5 5 -10 10 -10 6 0 10 5 10 10 0 6 -4 10 -10 10 -5 0
-10 -4 -10 -10z"/>
<path d="M2750 50 c-8 -5 -12 -12 -9 -15 4 -3 12 1 19 10 14 17 11 19 -10 5z"/>
<path d="M2788 53 c7 -3 16 -2 19 1 4 3 -2 6 -13 5 -11 0 -14 -3 -6 -6z"/>
<path d="M2830 49 c0 -5 5 -7 10 -4 6 3 10 8 10 11 0 2 -4 4 -10 4 -5 0 -10
-5 -10 -11z"/>
<path d="M2873 45 c0 -8 4 -12 9 -9 5 3 6 10 3 15 -9 13 -12 11 -12 -6z"/>
<path d="M2350 40 c0 -5 5 -10 11 -10 5 0 7 5 4 10 -3 6 -8 10 -11 10 -2 0 -4
-4 -4 -10z"/>
<path d="M2670 40 c0 -5 5 -10 11 -10 5 0 7 5 4 10 -3 6 -8 10 -11 10 -2 0 -4
-4 -4 -10z"/>
</g>
</svg>
